<svg version="1.1" id="Layer_1" xmlns="http://www.w3.org/2000/svg" xmlns:xlink="http://www.w3.org/1999/xlink" x="0px" y="0px"
	 width="100%" viewBox="0 0 500 500" enable-background="new 0 0 500 500" xml:space="preserve">
<path fill="#000000" opacity="1.000000" stroke="none" 
	d="
M231.000000,501.000000 
	C154.000015,501.000000 77.500038,501.000000 1.000041,501.000000 
	C1.000027,334.333405 1.000027,167.666779 1.000014,1.000131 
	C167.666565,1.000087 334.333130,1.000087 500.999756,1.000044 
	C500.999847,167.666519 500.999847,334.333038 500.999939,500.999786 
	C411.166656,501.000000 321.333344,501.000000 231.000000,501.000000 
M19.969053,254.982071 
	C19.969053,254.982071 19.953701,254.963760 19.140261,254.958374 
	C16.825603,255.354568 14.510944,255.750778 12.196286,256.146973 
	C12.229492,256.393890 12.262698,256.640839 12.295903,256.887756 
	C15.517323,256.887756 18.738741,256.887756 22.788343,256.960297 
	C25.203688,256.605347 27.619030,256.250366 30.793995,255.955536 
	C32.210796,255.644440 33.627602,255.333359 35.886372,255.020477 
	C65.893341,250.380188 88.491730,235.772751 99.770866,206.616852 
	C103.160538,197.854797 105.648438,188.663681 105.279236,178.788879 
	C107.440102,178.497299 109.600960,178.205704 112.319344,177.838882 
	C109.557976,174.869995 105.751389,172.438980 108.739746,167.533966 
	C112.578773,168.524353 116.547104,169.548080 120.515434,170.571823 
	C120.800407,170.062256 121.085381,169.552704 121.370346,169.043137 
	C118.416145,166.720428 115.684937,163.997589 112.443115,162.190994 
	C109.387115,160.487961 108.621475,158.521805 109.202698,155.304398 
	C109.489960,153.714188 108.946198,151.973831 108.778458,150.301422 
	C108.134682,150.267395 107.490913,150.233353 106.847137,150.199326 
	C106.233673,152.131516 105.300224,154.029282 105.087593,156.004608 
	C104.820755,158.483582 104.704567,159.849289 101.441803,160.608353 
	C97.725975,161.472809 94.482323,164.366913 91.033447,166.378860 
	C91.262787,166.849609 91.492119,167.320343 91.721451,167.791077 
	C95.570145,167.511780 99.418831,167.232468 103.175529,166.959839 
	C104.695442,170.837265 104.052414,173.194077 100.627800,174.819427 
	C99.504662,175.352478 98.877052,176.929611 97.294502,177.946091 
	C83.921799,170.491074 69.614784,169.403748 54.910931,172.164780 
	C44.851082,174.053757 36.185047,178.671951 30.001987,187.158783 
	C16.720247,205.389236 21.872496,229.615204 32.097553,245.571289 
	C32.915089,246.847031 35.738354,248.016495 37.079613,247.572845 
	C42.794376,245.682556 48.302219,243.166687 54.179073,240.758926 
	C52.323734,238.664368 51.147217,237.336182 50.751545,235.962845 
	C52.184158,236.245621 53.616776,236.528397 55.567646,236.913467 
	C57.231236,228.378098 58.848381,220.081024 60.479931,211.710037 
	C63.748486,214.084702 66.708626,216.235291 70.233780,218.796387 
	C71.246368,215.350143 71.916962,213.067810 72.546898,210.923889 
	C74.462975,211.712738 76.183243,212.420975 78.403534,213.335083 
	C79.505241,207.358765 80.474243,202.102264 81.537086,196.336761 
	C84.098404,198.408051 86.181114,200.270950 88.458862,201.853073 
	C89.478485,202.561279 90.889236,202.706406 92.122498,203.107040 
	C91.887787,201.765579 91.832954,200.359039 91.376740,199.097702 
	C90.669838,197.143265 89.689156,195.287857 89.371628,193.862579 
	C90.586563,195.824829 91.801491,197.787094 93.016426,199.749344 
	C96.174149,195.449478 97.281075,192.510468 98.707298,189.735596 
	C100.829895,185.605820 101.631996,181.684692 98.723007,177.892288 
	C100.658623,178.266388 102.594246,178.640488 104.201775,179.757385 
	C99.672531,198.165756 90.086227,213.781555 76.572159,226.724228 
	C63.441418,239.299820 47.781399,247.883469 29.519472,252.295624 
	C29.261160,252.468872 29.074265,252.699921 28.289751,253.016037 
	C27.845276,253.055084 27.400803,253.094116 26.373869,253.102661 
	C25.897385,253.396027 25.420902,253.689392 24.442789,254.046249 
	C24.277056,254.076889 24.111320,254.107529 23.232912,254.058060 
	C22.145538,254.362259 21.058163,254.666458 19.969053,254.982071 
M309.971039,245.390854 
	C309.678253,244.914124 309.385468,244.437393 309.007568,243.178726 
	C307.986816,240.340363 307.385345,237.229645 305.785706,234.767349 
	C304.849365,233.326035 302.199829,232.043884 300.540253,232.273666 
	C298.576202,232.545624 295.903717,234.130234 295.194092,235.835083 
	C293.008270,241.086319 291.611786,246.666122 289.547363,253.274734 
	C292.091736,253.153809 294.134521,253.251389 296.103271,252.915268 
	C298.729187,252.466965 301.297516,251.681549 304.143066,251.659378 
	C304.992706,252.363388 305.842316,253.067383 307.248077,253.971329 
	C307.831879,253.926590 308.415710,253.881851 309.733917,254.003250 
	C310.805176,253.347107 311.876465,252.690948 311.885345,252.685501 
	C314.965393,253.062973 317.684387,254.226212 318.866608,253.339783 
	C320.497314,252.117111 320.968109,249.347458 321.921631,247.271133 
	C324.148804,249.215347 326.267456,251.706116 328.936829,253.235992 
	C332.427063,255.236343 334.954926,253.471466 334.996826,249.474747 
	C335.053864,244.031067 335.011047,238.586365 335.011047,233.247437 
	C328.498291,231.611298 327.535706,232.386078 326.533997,240.290985 
	C323.343597,235.917694 320.786011,230.817749 313.521393,233.828522 
	C313.521393,239.201569 313.521393,244.940659 313.521393,250.679764 
	C313.190735,250.700409 312.860077,250.721054 312.529419,250.741714 
	C311.700775,249.455139 310.872131,248.168564 309.979553,246.429901 
	C309.979553,246.429901 309.822845,246.001038 309.971039,245.390854 
M111.101562,232.378754 
	C116.127258,217.369949 116.609657,202.765228 107.741501,188.473404 
	C104.023453,199.808975 100.772385,210.573761 96.902679,221.111343 
	C95.288101,225.508011 93.323212,230.749741 89.831635,233.288391 
	C81.602562,239.271515 72.597214,244.340225 63.452374,248.861572 
	C56.274479,252.410461 48.417526,254.585861 40.362751,257.555603 
	C46.680801,266.628510 54.995338,273.590729 64.701050,278.687012 
	C66.972092,279.879517 71.437798,279.397247 73.584457,277.858704 
	C80.411446,272.965698 87.323074,267.838531 92.880333,261.620605 
	C99.006561,254.766068 103.670174,246.604309 109.207405,239.854904 
	C109.120903,243.491394 109.025490,247.127701 108.950630,250.764435 
	C108.887138,253.848663 111.088203,254.669876 113.217613,253.825485 
	C114.786316,253.203415 116.758011,251.137939 116.827423,249.636017 
	C117.078911,244.194641 116.603615,238.719666 116.398849,233.156113 
	C113.918587,233.156113 112.453300,233.156113 111.101562,232.378754 
M362.219849,232.167770 
	C361.199280,233.284912 359.321136,234.390945 359.306458,235.521149 
	C359.242889,240.419632 359.840302,245.322342 359.959534,250.229279 
	C360.024475,252.902695 360.781982,254.308777 363.735748,254.001877 
	C367.960815,253.562912 372.221680,253.428680 376.425690,252.857971 
	C377.361664,252.730896 378.124664,251.329346 378.967285,250.514603 
	C377.964630,249.684692 377.039246,248.287628 375.943817,248.138336 
	C373.352203,247.785141 370.679749,248.024872 368.039978,248.024872 
	C368.036316,247.434204 368.032654,246.843552 368.028992,246.252884 
	C369.530548,246.165009 371.031250,246.024017 372.533875,245.998688 
	C378.054535,245.905640 378.207428,245.688477 376.240173,239.836365 
	C373.754059,239.836365 371.149963,239.836365 368.545868,239.836365 
	C368.546570,239.719086 368.547241,239.601822 368.547943,239.484543 
	C372.588989,238.910507 376.630005,238.336472 381.008789,237.714462 
	C381.008789,241.515076 380.847015,245.822708 381.104736,250.105103 
	C381.184845,251.435974 382.234619,253.620316 383.136414,253.784058 
	C384.625366,254.054443 386.817963,253.449539 387.855835,252.380447 
	C388.944977,251.258484 389.024353,249.156311 389.858459,246.474991 
	C391.799622,252.626328 394.963623,255.734421 401.560150,253.350647 
	C400.488037,250.856873 399.428650,248.392639 398.237152,245.621201 
	C398.844879,244.659744 400.075073,243.399384 400.492279,241.911118 
	C401.370636,238.777893 402.107635,234.814850 398.085663,233.764786 
	C393.820587,232.651230 389.175720,232.883209 384.690704,232.774338 
	C382.860931,232.729904 380.992310,233.693100 379.181366,233.576370 
	C373.803955,233.229797 368.446442,232.574234 362.219849,232.167770 
M236.022232,252.112000 
	C237.860550,252.669250 239.681320,253.529938 241.545624,253.637680 
	C242.314438,253.682129 243.951767,252.027710 243.873886,251.284317 
	C243.251846,245.347977 246.396484,241.084579 249.635452,236.722580 
	C250.332260,235.784149 250.123642,234.173431 250.332123,232.872391 
	C248.973282,232.659424 247.325806,231.857224 246.314087,232.352829 
	C244.016144,233.478516 242.030838,235.242416 240.244034,236.514984 
	C238.517731,235.360611 236.783066,233.209534 234.996964,233.165924 
	C222.741547,232.866684 210.475372,233.008835 198.141113,233.008835 
	C198.444885,238.804871 198.907578,244.178070 198.934921,249.553452 
	C198.949463,252.414581 199.870422,254.025787 202.743073,253.874008 
	C205.298401,253.739014 206.153336,252.162964 206.050858,249.566193 
	C205.890152,245.493561 206.142227,241.404648 206.235092,236.498093 
	C208.383514,237.897385 209.210388,238.902328 210.017212,238.886490 
	C215.665512,238.775574 215.466904,242.078964 214.421967,246.015854 
	C214.217667,246.785538 213.812057,247.819000 214.131180,248.353638 
	C215.303497,250.317657 216.453720,253.330322 218.141006,253.733047 
	C221.512451,254.537735 222.112183,251.740875 222.057556,248.738297 
	C221.974472,244.171295 220.078140,238.343552 228.091629,238.289978 
	C228.842209,238.284943 229.586868,237.397003 231.626617,236.092438 
	C233.236954,241.665878 234.618896,246.448837 236.022232,252.112000 
M465.383942,246.024216 
	C464.655884,244.257660 463.927826,242.491089 462.663361,239.422989 
	C465.853180,239.341187 468.906036,238.630936 471.421906,239.491119 
	C472.518494,239.866043 472.750580,243.439926 472.949615,245.600220 
	C473.198608,248.303207 473.009460,251.046555 473.009460,253.722458 
	C478.083679,254.535721 480.681671,253.287216 480.034363,248.173233 
	C479.826874,246.534149 480.106934,244.838562 479.980225,243.182892 
	C479.761414,240.323898 480.655212,238.932449 483.846222,238.829514 
	C484.932007,238.794479 486.967224,236.539612 486.777435,235.707642 
	C486.457397,234.304642 484.891235,232.545273 483.516357,232.176498 
	C481.546875,231.648224 479.269989,232.411880 477.138702,232.313461 
	C470.881744,232.024521 464.874725,235.492035 458.265350,232.301773 
	C453.452454,229.978653 447.124878,233.479324 446.164978,237.596649 
	C445.292023,241.341248 448.158813,245.113724 446.138702,248.946564 
	C445.939728,249.324081 447.093567,250.543060 447.764160,251.230301 
	C453.430115,257.036774 462.614197,254.698318 465.383942,246.024216 
M274.936249,247.752014 
	C275.182251,247.666336 275.424438,247.543564 275.676544,247.517746 
	C275.751587,247.510071 275.894226,247.763077 275.938782,247.916153 
	C276.728485,250.632004 276.954865,253.959579 280.872009,253.890289 
	C282.534027,253.860870 285.388916,253.372238 285.642487,252.496201 
	C287.453491,246.240295 288.732880,239.830505 290.262695,233.112488 
	C279.840759,232.656799 270.179657,234.250381 259.947693,232.967560 
	C260.823883,236.294342 261.406250,238.517609 261.995361,240.739059 
	C262.651489,243.213425 263.796844,245.673676 263.861053,248.162476 
	C263.959381,251.973480 265.076660,253.999466 269.231689,254.058395 
	C273.497742,254.118851 273.794495,251.177643 274.936249,247.752014 
M130.019470,248.551804 
	C130.615829,249.493439 130.998413,250.881912 131.850281,251.289474 
	C134.043472,252.338745 136.459091,253.502823 138.754410,253.441635 
	C139.548294,253.420471 140.759888,249.957703 140.891327,248.007050 
	C141.206161,243.335236 140.993073,238.627869 140.993073,233.298904 
	C139.084610,233.298904 136.219116,232.496582 134.474197,233.550156 
	C133.051971,234.408890 132.970154,237.487579 132.564102,238.745224 
	C129.707001,236.640091 126.927216,233.980301 123.634254,232.369934 
	C121.239922,231.199066 118.891502,232.251648 118.976311,235.779037 
	C119.088234,240.433716 118.687508,245.136200 119.258369,249.724655 
	C119.451546,251.277313 121.743958,253.355499 123.410484,253.737061 
	C125.448479,254.203659 127.435532,252.835266 127.016426,249.937500 
	C126.847099,248.766769 126.988510,247.551086 126.988510,246.355865 
	C127.386650,246.208130 127.784790,246.060394 128.182922,245.912674 
	C128.621811,246.611694 129.060699,247.310730 130.019470,248.551804 
M189.612213,253.090652 
	C192.929977,255.266388 195.431839,253.833359 195.744553,250.533615 
	C196.283127,244.850647 195.893646,239.079727 195.893646,233.331146 
	C193.152313,233.331146 190.623398,233.331146 188.135422,233.331146 
	C188.001831,235.664505 187.887405,237.663208 187.745697,240.138474 
	C183.444580,236.396530 181.028275,230.209656 174.009338,233.767532 
	C174.009338,239.118378 174.130005,244.581039 173.959351,250.034607 
	C173.871582,252.839310 175.338181,254.200455 177.639603,253.771500 
	C178.919571,253.532944 180.190384,251.696686 180.874847,250.292633 
	C181.441757,249.129761 181.143417,247.545090 181.267685,245.501663 
	C184.139633,248.319077 186.499039,250.633682 189.612213,253.090652 
M352.446075,252.073441 
	C357.092316,251.537354 357.976654,248.321457 357.995789,244.401184 
	C358.030182,237.355499 356.440521,234.142410 351.270111,233.258133 
	C347.387878,232.594162 343.303436,232.934677 339.327423,233.157394 
	C338.592010,233.198578 337.349762,234.815918 337.356842,235.697647 
	C337.392487,240.117355 338.146393,244.554337 337.915558,248.946762 
	C337.674316,253.537033 340.110748,254.264908 343.634094,253.927887 
	C346.380005,253.665253 349.096527,253.094986 352.446075,252.073441 
M422.469269,241.975723 
	C423.494202,245.267456 423.568115,249.563309 425.751801,251.631638 
	C429.699310,255.370605 434.894684,254.568298 439.726288,252.081406 
	C443.852386,249.957626 444.134735,246.345413 444.020142,242.431335 
	C443.961823,240.440475 443.986786,238.446335 444.009064,236.454086 
	C444.063416,231.595123 440.383972,233.078690 437.912323,233.086197 
	C434.901184,233.095337 435.041656,234.694382 435.568573,237.422012 
	C436.277802,241.093414 437.760223,245.652481 432.713226,248.094055 
	C428.455841,245.026993 429.481384,240.741806 430.578827,237.197174 
	C431.888885,232.965744 428.750580,232.411530 426.749573,232.272949 
	C425.252899,232.169296 423.054596,234.184219 422.162140,235.803345 
	C421.393921,237.197128 422.029938,239.364899 422.469269,241.975723 
M142.989853,236.671814 
	C142.995758,241.002914 142.675705,245.372360 143.178345,249.645020 
	C143.362686,251.212067 145.257706,253.092255 146.831436,253.781555 
	C147.723816,254.172424 150.822159,252.288284 150.750809,251.687027 
	C150.102066,246.221390 153.124756,245.637299 157.377213,245.845184 
	C158.192825,245.885086 159.084854,244.362518 159.941620,243.560760 
	C159.113602,242.719757 158.402649,241.374130 157.431808,241.148941 
	C155.719284,240.751678 153.848267,241.037750 152.043594,241.037750 
	C152.051193,240.356140 152.058792,239.674530 152.066391,238.992920 
	C154.067978,238.992920 156.128250,239.279205 158.049088,238.885361 
	C159.198227,238.649734 160.399872,237.519226 161.059937,236.466248 
	C161.478531,235.798508 161.303055,234.243927 160.773270,233.589752 
	C158.967880,231.360428 145.238785,231.551025 143.085114,233.773758 
	C142.743500,234.126343 142.994781,235.053391 142.989853,236.671814 
M406.615906,231.988434 
	C403.827850,232.866043 402.653107,234.456894 402.905396,237.659576 
	C403.293304,242.584717 403.007416,247.562927 403.007416,252.986526 
	C408.124847,252.986526 413.013458,253.154465 417.877319,252.881683 
	C419.292145,252.802353 420.636322,251.463425 422.012878,250.701874 
	C420.704163,249.474442 419.578918,247.625092 418.041870,247.171753 
	C415.965210,246.559280 413.572083,247.019592 411.006500,247.019592 
	C411.006500,243.217392 410.814575,239.920258 411.064575,236.656998 
	C411.281830,233.821381 410.243805,232.360214 406.615906,231.988434 
M163.648682,233.101089 
	C163.440018,238.988510 162.975220,244.887650 163.243195,250.753296 
	C163.295547,251.898773 166.114456,253.526855 167.807693,253.740387 
	C168.700607,253.852997 170.643677,251.500977 170.855377,250.075104 
	C171.544052,245.436966 171.801819,240.714752 171.864731,236.020065 
	C171.877945,235.033951 170.529831,233.497589 169.497589,233.156097 
	C168.006866,232.662872 166.231766,233.029221 163.648682,233.101089 
M295.336670,270.050018 
	C294.740417,269.802246 294.080078,269.249420 293.558838,269.358826 
	C291.134644,269.867828 287.271973,269.926270 286.671661,271.325104 
	C285.582855,273.862335 283.761139,277.492767 286.844513,280.206940 
	C289.424072,282.477631 292.475983,282.759033 295.428375,280.830414 
	C300.206848,277.708923 297.011932,274.033173 295.336670,270.050018 
M413.071106,278.558411 
	C413.048706,276.918549 413.677460,274.746948 412.865143,273.752136 
	C411.289032,271.822052 408.998016,269.553772 406.820435,269.346558 
	C405.252258,269.197327 402.467682,271.892181 401.909210,273.808929 
	C401.326691,275.808411 402.003723,279.272797 403.473206,280.543243 
	C406.517456,283.175232 410.134918,282.564331 413.071106,278.558411 
M347.953918,269.586121 
	C347.830261,273.410400 347.538574,277.248627 347.852356,281.036682 
	C347.882538,281.400909 352.148529,282.284637 353.613739,281.454498 
	C355.780212,280.227020 357.991272,277.903595 358.640961,275.609924 
	C359.037018,274.211761 356.923492,271.386566 355.232147,270.311218 
	C353.481995,269.198486 350.879456,269.426453 347.953918,269.586121 
M447.985718,276.255524 
	C448.263336,277.910889 448.540985,279.566254 448.818604,281.221588 
	C450.314789,280.678741 451.810974,280.135895 453.395111,279.561096 
	C454.214996,280.131561 455.466675,281.002380 457.054626,282.107208 
	C457.054626,277.614044 457.054626,273.956207 457.054626,269.384735 
	C453.579498,269.634491 450.629303,269.695709 447.789246,270.286377 
	C447.508514,270.344727 447.901337,273.641724 447.985718,276.255524 
M304.017639,269.501862 
	C303.371521,272.754333 302.577148,275.989075 302.184479,279.271851 
	C302.087402,280.083527 303.685883,281.890442 303.842010,281.817657 
	C305.445557,281.070221 306.912567,280.029877 308.116760,279.262878 
	C309.245331,280.182190 310.293762,281.036224 311.342255,281.890289 
	C311.820343,281.138275 312.747101,280.355896 312.698639,279.639526 
	C312.492493,276.592987 311.997467,273.566010 311.553955,270.111450 
	C309.454132,269.783936 307.108643,269.418091 304.017639,269.501862 
M139.118317,272.586639 
	C139.213257,274.445648 139.155365,276.329407 139.451630,278.155762 
	C139.687454,279.609619 140.355743,280.993347 140.832047,282.408203 
	C141.299591,282.260864 141.767120,282.113556 142.234665,281.966248 
	C142.846649,280.713043 143.458633,279.459839 143.924469,278.505920 
	C145.528442,279.675629 146.994507,280.744781 148.460571,281.813934 
	C148.648132,280.097504 148.848648,278.382324 149.015121,276.663849 
	C149.062988,276.169556 149.160690,275.603424 148.981277,275.177246 
	C148.247879,273.435150 147.867233,271.010712 146.523987,270.173370 
	C143.945572,268.566071 140.849075,268.075928 139.118317,272.586639 
M441.959076,274.797943 
	C441.155670,274.360352 440.352264,273.922729 440.005707,273.733978 
	C440.902802,272.980286 441.941559,272.107605 442.980316,271.234894 
	C441.043488,270.491302 439.094757,269.163513 437.173859,269.202637 
	C435.817413,269.230255 433.422577,271.058350 433.367981,272.174408 
	C433.213470,275.332947 434.024292,278.538666 434.541656,282.368347 
	C437.464691,281.906250 440.294373,281.458923 443.124054,281.011566 
	C443.054016,280.463928 442.983978,279.916321 442.913940,279.368683 
	C441.764557,279.138947 440.615204,278.909210 440.015198,278.789307 
	C440.698334,277.684357 441.348694,276.632446 441.959076,274.797943 
M192.906540,274.395721 
	C192.141037,274.167664 191.375549,273.939575 190.501007,273.679016 
	C191.755707,272.889893 192.949417,272.139130 194.143127,271.388367 
	C194.085510,270.779541 194.027893,270.170685 193.970276,269.561859 
	C191.313873,269.561859 186.575653,268.936890 186.356049,269.668396 
	C185.322327,273.111938 184.742661,277.149231 185.688141,280.498352 
	C186.052963,281.790619 190.885376,281.821564 193.390686,282.364044 
	C193.390686,279.132782 193.390686,277.033051 192.906540,274.395721 
M324.723694,274.013062 
	C324.289825,273.832642 323.855957,273.652191 323.422089,273.471741 
	C323.558929,273.376709 323.758698,273.312500 323.822693,273.181793 
	C324.349396,272.106232 324.850922,271.018280 325.360046,269.934113 
	C323.146271,269.663818 320.881195,269.032349 318.748779,269.335083 
	C318.076355,269.430542 317.649719,272.004578 317.322296,273.490875 
	C317.137329,274.330688 317.255127,275.296173 317.461090,276.150909 
	C317.890259,277.931824 318.008118,280.769012 319.077179,281.219818 
	C321.677734,282.316376 324.990387,283.301178 327.374115,279.322510 
	C325.440796,279.104065 323.992126,278.940399 323.545990,278.889984 
	C324.216705,277.224792 324.846466,275.661133 324.723694,274.013062 
M379.691498,281.034637 
	C380.036926,279.443573 380.521790,277.864655 380.662048,276.255707 
	C380.721588,275.572723 379.857880,274.850586 379.769348,274.104065 
	C379.623108,272.870880 380.172119,270.721008 379.712738,270.509247 
	C378.062836,269.748627 375.871063,268.960846 374.355774,269.502563 
	C373.205994,269.913635 372.624023,272.281586 372.099915,273.880585 
	C371.908264,274.465240 372.868988,275.344299 372.865845,276.087189 
	C372.839874,282.181885 373.127960,282.465149 379.691498,281.034637 
M229.041138,270.972595 
	C229.026657,272.797852 229.197067,274.647369 228.960953,276.443512 
	C228.389069,280.793915 230.061707,282.697388 234.487961,282.019226 
	C235.600372,281.848755 236.734726,281.821533 237.858994,281.728455 
	C238.022293,281.355560 238.185608,280.982635 238.348907,280.609741 
	C237.108734,279.854553 235.868561,279.099365 235.050659,278.601318 
	C235.665359,277.488617 236.313492,276.315430 236.961624,275.142212 
	C235.852600,274.565491 234.743591,273.988770 233.828918,273.513123 
	C235.200058,272.911774 236.700424,272.253754 239.408203,271.066193 
	C235.279709,268.533661 232.434311,268.228912 229.041138,270.972595 
M389.109467,281.513275 
	C392.977509,282.587555 395.961182,282.038727 397.577484,276.377167 
	C394.673309,277.303833 392.851837,277.885040 390.430084,278.657776 
	C390.284363,276.791321 390.144196,274.996033 389.991455,273.039581 
	C392.645386,273.394989 394.716095,273.672302 397.384338,274.029633 
	C393.737122,268.635437 391.387665,267.920502 387.968964,270.557281 
	C384.969727,272.870544 385.170166,277.492859 389.109467,281.513275 
M246.523926,280.927582 
	C248.628433,280.927582 250.732925,280.927582 253.739471,280.927582 
	C252.068390,278.784515 251.009796,277.426910 249.912399,276.019562 
	C251.009430,274.152863 252.047684,272.386169 252.988892,270.784607 
	C249.860519,270.202667 246.939499,269.584686 243.987228,269.219086 
	C243.672546,269.180145 242.652344,271.089355 242.840637,271.297455 
	C245.902161,274.680878 244.683060,277.625641 242.196213,281.320526 
	C243.382996,281.226624 244.569794,281.132721 246.523926,280.927582 
M164.716049,280.784851 
	C163.715942,277.285492 162.874771,273.722870 161.535812,270.358307 
	C161.345932,269.881195 157.711517,269.875610 157.415909,270.490509 
	C155.872498,273.700836 154.892578,277.182098 153.999268,279.755096 
	C157.855133,280.324341 160.995117,280.787872 164.716049,280.784851 
M422.044830,281.511414 
	C423.472870,280.749817 425.405945,280.332672 426.213837,279.148163 
	C427.517761,277.236389 428.196930,274.855072 428.891907,272.595795 
	C429.125854,271.835205 428.604919,270.842407 428.429016,269.955750 
	C427.337830,270.173798 425.871368,270.042694 425.256287,270.703735 
	C424.581299,271.429169 424.691040,272.884766 424.534149,273.653412 
	C422.583099,272.166901 420.802246,270.810059 419.021393,269.453217 
	C418.569580,269.883453 418.117767,270.313690 417.665924,270.743927 
	C418.933350,274.153778 420.200775,277.563629 422.044830,281.511414 
M178.995453,275.513214 
	C179.527924,273.781891 180.060379,272.050568 180.592834,270.319244 
	C180.174713,269.994843 179.756592,269.670410 179.338470,269.345978 
	C177.674850,271.031219 176.011246,272.716431 174.340042,274.409332 
	C174.081299,273.761719 173.877136,272.649414 173.260590,271.858612 
	C172.476440,270.852875 171.358200,270.107635 170.383987,269.250092 
	C170.244797,270.479401 169.796951,271.772369 170.034348,272.924042 
	C170.453796,274.958954 171.146820,276.972992 172.005859,278.868652 
	C172.533463,280.032898 173.652298,281.851196 174.381485,281.793976 
	C175.585327,281.699493 176.878662,280.487244 177.772675,279.437988 
	C178.453003,278.639496 178.572388,277.363098 178.995453,275.513214 
M261.040771,279.554230 
	C262.529846,278.654694 264.241638,277.978485 265.438019,276.785400 
	C266.404388,275.821686 267.558655,273.372589 267.234680,273.068512 
	C265.518524,271.457672 263.482147,269.998840 261.297760,269.169189 
	C260.425812,268.838013 257.859985,270.210022 257.830475,270.884003 
	C257.685974,274.186401 258.136230,277.514801 258.376282,280.833984 
	C259.224030,280.654572 260.071777,280.475159 261.040771,279.554230 
M131.983292,275.698700 
	C132.934448,274.044434 133.885605,272.390137 135.044556,270.374420 
	C131.511856,269.031311 128.142654,267.588593 125.696388,270.842133 
	C126.959183,273.735168 127.356163,276.314514 128.045868,278.813110 
	C128.345337,279.897980 129.247101,280.816650 129.875305,281.810791 
	C130.580612,280.884491 131.452988,280.035828 131.932083,279.004456 
	C132.247849,278.324707 131.997482,277.381958 131.983292,275.698700 
M277.354462,278.974884 
	C276.903503,277.280182 276.420532,275.593170 276.010620,273.888580 
	C275.612976,272.234833 275.290375,270.563019 274.766815,268.113129 
	C272.163452,271.170227 270.936798,279.829132 272.576385,280.909302 
	C275.557983,282.873627 278.779297,282.676849 282.999023,279.997192 
	C280.593262,279.491058 279.403961,279.240845 277.354462,278.974884 
M198.992920,272.892487 
	C198.990891,275.039734 198.613831,277.284607 199.137344,279.295013 
	C199.419724,280.379395 201.175842,281.651489 202.386978,281.789948 
	C204.251373,282.003113 206.218887,281.314423 208.142654,281.008331 
	C208.051895,280.456818 207.961151,279.905304 207.870407,279.353790 
	C206.329163,279.136688 204.787918,278.919586 202.993439,278.666809 
	C202.993439,276.346405 203.203140,274.189941 202.905197,272.105988 
	C202.755661,271.059967 201.682312,270.145966 201.026749,269.172272 
	C200.350723,270.119385 199.674683,271.066467 198.992920,272.892487 
M366.634857,271.169037 
	C365.595642,270.743561 364.556396,270.318054 362.824432,269.608948 
	C363.673798,274.349304 361.446686,278.556396 364.994476,282.553131 
	C368.351562,279.149567 366.477356,275.333710 366.634857,271.169037 
z"/>
<path fill="#054225" opacity="1.000000" stroke="none" 
	d="
M108.970901,239.011963 
	C103.670174,246.604309 99.006561,254.766068 92.880333,261.620605 
	C87.323074,267.838531 80.411446,272.965698 73.584457,277.858704 
	C71.437798,279.397247 66.972092,279.879517 64.701050,278.687012 
	C54.995338,273.590729 46.680801,266.628510 40.362751,257.555603 
	C48.417526,254.585861 56.274479,252.410461 63.452374,248.861572 
	C72.597214,244.340225 81.602562,239.271515 89.831635,233.288391 
	C93.323212,230.749741 95.288101,225.508011 96.902679,221.111343 
	C100.772385,210.573761 104.023453,199.808975 107.741501,188.473404 
	C116.609657,202.765228 116.127258,217.369949 110.966995,233.094391 
	C110.211922,235.544022 109.591408,237.277985 108.970901,239.011963 
z"/>
<path fill="#04385B" opacity="1.000000" stroke="none" 
	d="
M49.970703,236.007980 
	C51.147217,237.336182 52.323734,238.664368 54.179073,240.758926 
	C48.302219,243.166687 42.794376,245.682556 37.079613,247.572845 
	C35.738354,248.016495 32.915089,246.847031 32.097553,245.571289 
	C21.872496,229.615204 16.720247,205.389236 30.001987,187.158783 
	C36.185047,178.671951 44.851082,174.053757 54.910931,172.164780 
	C69.614784,169.403748 83.921799,170.491074 97.649460,177.970276 
	C98.004425,177.994461 97.969498,177.976227 97.969498,177.976227 
	C101.631996,181.684692 100.829895,185.605820 98.707298,189.735596 
	C97.281075,192.510468 96.174149,195.449478 93.016426,199.749344 
	C91.801491,197.787094 90.586563,195.824829 88.996964,193.476517 
	C88.227684,192.729919 87.833061,192.369370 87.187309,191.737122 
	C81.461838,185.877762 74.250397,184.281830 67.047043,184.439774 
	C62.988953,184.528748 58.991428,187.380310 54.984146,188.998779 
	C55.001667,189.010208 55.009525,188.969116 54.633774,188.903854 
	C53.335724,189.227051 52.413425,189.615509 51.391842,190.071045 
	C51.292553,190.138123 51.011204,190.522461 50.693733,190.694550 
	C49.421997,191.579788 48.467735,192.292938 47.409676,193.064041 
	C47.305878,193.121994 46.999752,193.481155 46.740837,193.726608 
	C45.977585,194.980942 45.473248,195.989807 44.987038,197.001892 
	C45.005173,197.005127 44.993778,196.970093 44.670086,197.106766 
	C38.215137,204.118057 37.844330,212.299911 39.756393,220.595398 
	C41.193951,226.832214 43.310429,233.066406 49.998268,236.015259 
	C50.002728,235.999069 49.970699,236.007980 49.970703,236.007980 
z"/>
<path fill="#044224" opacity="1.000000" stroke="none" 
	d="
M87.438438,192.008835 
	C87.833061,192.369370 88.227684,192.729919 88.723419,193.240463 
	C89.689156,195.287857 90.669838,197.143265 91.376740,199.097702 
	C91.832954,200.359039 91.887787,201.765579 92.122498,203.107056 
	C90.889236,202.706406 89.478485,202.561279 88.458862,201.853073 
	C86.181114,200.270950 84.098404,198.408051 81.537086,196.336761 
	C80.474243,202.102264 79.505241,207.358765 78.403534,213.335083 
	C76.183243,212.420975 74.462975,211.712738 72.546898,210.923889 
	C71.916962,213.067810 71.246368,215.350143 70.233780,218.796387 
	C66.708626,216.235291 63.748486,214.084702 60.479931,211.710037 
	C58.848381,220.081024 57.231236,228.378098 55.567646,236.913467 
	C53.616776,236.528397 52.184158,236.245621 50.361122,235.985413 
	C49.970699,236.007980 50.002728,235.999069 49.991631,235.662094 
	C49.778019,234.878983 49.673393,234.343140 49.358742,233.999741 
	C40.259239,224.068924 38.719662,212.974396 44.108597,200.745377 
	C44.620945,199.582703 44.708832,198.232971 44.993782,196.970093 
	C44.993778,196.970093 45.005173,197.005127 45.369957,196.950516 
	C46.156406,195.757660 46.578079,194.619400 46.999752,193.481155 
	C46.999752,193.481155 47.305878,193.121994 47.840698,193.093506 
	C49.254086,192.217484 50.132648,191.369980 51.011208,190.522461 
	C51.011204,190.522461 51.292553,190.138123 51.785110,190.108810 
	C53.188282,189.709366 54.098904,189.339233 55.009521,188.969116 
	C55.009525,188.969116 55.001667,189.010208 55.387062,188.995209 
	C65.708946,186.126785 75.450035,185.196274 84.565079,191.619659 
	C85.266129,192.113693 86.468880,191.895813 87.438438,192.008835 
z"/>
<path fill="#073858" opacity="1.000000" stroke="none" 
	d="
M30.034370,255.895401 
	C27.619030,256.250366 25.203688,256.605347 22.195229,256.711548 
	C21.052641,255.963135 20.503172,255.463455 19.953701,254.963760 
	C19.953701,254.963760 19.969053,254.982071 20.325642,254.987762 
	C21.770014,254.708359 22.857798,254.423279 23.945583,254.138184 
	C24.111320,254.107529 24.277056,254.076889 24.978640,253.993439 
	C25.995104,253.671463 26.475716,253.402313 26.956329,253.133148 
	C27.400803,253.094116 27.845276,253.055084 28.821737,252.906677 
	C29.604084,252.637192 29.803232,252.428253 29.951166,252.170502 
	C47.781399,247.883469 63.441418,239.299820 76.572159,226.724228 
	C90.086227,213.781555 99.672531,198.165756 104.391830,179.382416 
	C104.581894,179.007446 104.638680,178.996033 104.638680,178.996033 
	C105.648438,188.663681 103.160538,197.854797 99.770866,206.616852 
	C88.491730,235.772751 65.893341,250.380188 35.082264,255.013947 
	C32.863560,255.303406 31.448965,255.599396 30.034370,255.895401 
z"/>
<path fill="#D6D6D6" opacity="1.000000" stroke="none" 
	d="
M362.650513,232.103607 
	C368.446442,232.574234 373.803955,233.229797 379.181366,233.576370 
	C380.992310,233.693100 382.860931,232.729904 384.690704,232.774338 
	C389.175720,232.883209 393.820587,232.651230 398.085663,233.764786 
	C402.107635,234.814850 401.370636,238.777893 400.492279,241.911118 
	C400.075073,243.399384 398.844879,244.659744 398.237152,245.621201 
	C399.428650,248.392639 400.488037,250.856873 401.560150,253.350647 
	C394.963623,255.734421 391.799622,252.626328 389.858459,246.474991 
	C389.024353,249.156311 388.944977,251.258484 387.855835,252.380447 
	C386.817963,253.449539 384.625366,254.054443 383.136414,253.784058 
	C382.234619,253.620316 381.184845,251.435974 381.104736,250.105103 
	C380.847015,245.822708 381.008789,241.515076 381.008789,237.714462 
	C376.630005,238.336472 372.588989,238.910507 368.547943,239.484543 
	C368.547241,239.601822 368.546570,239.719086 368.545868,239.836365 
	C371.149963,239.836365 373.754059,239.836365 376.240173,239.836365 
	C378.207428,245.688477 378.054535,245.905640 372.533875,245.998688 
	C371.031250,246.024017 369.530548,246.165009 368.028992,246.252884 
	C368.032654,246.843552 368.036316,247.434204 368.039978,248.024872 
	C370.679749,248.024872 373.352203,247.785141 375.943817,248.138336 
	C377.039246,248.287628 377.964630,249.684692 378.967285,250.514603 
	C378.124664,251.329346 377.361664,252.730896 376.425690,252.857971 
	C372.221680,253.428680 367.960815,253.562912 363.735748,254.001877 
	C360.781982,254.308777 360.024475,252.902695 359.959534,250.229279 
	C359.840302,245.322342 359.242889,240.419632 359.306458,235.521149 
	C359.321136,234.390945 361.199280,233.284912 362.650513,232.103607 
z"/>
<path fill="#D8D8D8" opacity="1.000000" stroke="none" 
	d="
M236.011536,251.671906 
	C234.618896,246.448837 233.236954,241.665878 231.626617,236.092438 
	C229.586868,237.397003 228.842209,238.284943 228.091629,238.289978 
	C220.078140,238.343552 221.974472,244.171295 222.057556,248.738297 
	C222.112183,251.740875 221.512451,254.537735 218.141006,253.733047 
	C216.453720,253.330322 215.303497,250.317657 214.131180,248.353638 
	C213.812057,247.819000 214.217667,246.785538 214.421967,246.015854 
	C215.466904,242.078964 215.665512,238.775574 210.017212,238.886490 
	C209.210388,238.902328 208.383514,237.897385 206.235092,236.498093 
	C206.142227,241.404648 205.890152,245.493561 206.050858,249.566193 
	C206.153336,252.162964 205.298401,253.739014 202.743073,253.874008 
	C199.870422,254.025787 198.949463,252.414581 198.934921,249.553452 
	C198.907578,244.178070 198.444885,238.804871 198.141113,233.008835 
	C210.475372,233.008835 222.741547,232.866684 234.996964,233.165924 
	C236.783066,233.209534 238.517731,235.360611 240.244034,236.514984 
	C242.030838,235.242416 244.016144,233.478516 246.314087,232.352829 
	C247.325806,231.857224 248.973282,232.659424 250.332123,232.872391 
	C250.123642,234.173431 250.332260,235.784149 249.635452,236.722580 
	C246.396484,241.084579 243.251846,245.347977 243.873886,251.284317 
	C243.951767,252.027710 242.314438,253.682129 241.545624,253.637680 
	C239.681320,253.529938 237.860550,252.669250 236.011536,251.671906 
z"/>
<path fill="#D7D7D7" opacity="1.000000" stroke="none" 
	d="
M465.622375,246.335419 
	C462.614197,254.698318 453.430115,257.036774 447.764160,251.230301 
	C447.093567,250.543060 445.939728,249.324081 446.138702,248.946564 
	C448.158813,245.113724 445.292023,241.341248 446.164978,237.596649 
	C447.124878,233.479324 453.452454,229.978653 458.265350,232.301773 
	C464.874725,235.492035 470.881744,232.024521 477.138702,232.313461 
	C479.269989,232.411880 481.546875,231.648224 483.516357,232.176498 
	C484.891235,232.545273 486.457397,234.304642 486.777435,235.707642 
	C486.967224,236.539612 484.932007,238.794479 483.846222,238.829514 
	C480.655212,238.932449 479.761414,240.323898 479.980225,243.182892 
	C480.106934,244.838562 479.826874,246.534149 480.034363,248.173233 
	C480.681671,253.287216 478.083679,254.535721 473.009460,253.722458 
	C473.009460,251.046555 473.198608,248.303207 472.949615,245.600220 
	C472.750580,243.439926 472.518494,239.866043 471.421906,239.491119 
	C468.906036,238.630936 465.853180,239.341187 462.663361,239.422989 
	C463.927826,242.491089 464.655884,244.257660 465.622375,246.335419 
z"/>
<path fill="#D7D7D7" opacity="1.000000" stroke="none" 
	d="
M274.628143,247.986786 
	C273.794495,251.177643 273.497742,254.118851 269.231689,254.058395 
	C265.076660,253.999466 263.959381,251.973480 263.861053,248.162476 
	C263.796844,245.673676 262.651489,243.213425 261.995361,240.739059 
	C261.406250,238.517609 260.823883,236.294342 259.947693,232.967560 
	C270.179657,234.250381 279.840759,232.656799 290.262695,233.112488 
	C288.732880,239.830505 287.453491,246.240295 285.642487,252.496201 
	C285.388916,253.372238 282.534027,253.860870 280.872009,253.890289 
	C276.954865,253.959579 276.728485,250.632004 275.938782,247.916153 
	C275.894226,247.763077 275.751587,247.510071 275.676544,247.517746 
	C275.424438,247.543564 275.182251,247.666336 274.628143,247.986786 
z"/>
<path fill="#D6D6D6" opacity="1.000000" stroke="none" 
	d="
M310.043488,246.882004 
	C310.872131,248.168564 311.700775,249.455139 312.529419,250.741714 
	C312.860077,250.721054 313.190735,250.700409 313.521393,250.679764 
	C313.521393,244.940659 313.521393,239.201569 313.521393,233.828522 
	C320.786011,230.817749 323.343597,235.917694 326.533997,240.290985 
	C327.535706,232.386078 328.498291,231.611298 335.011047,233.247437 
	C335.011047,238.586365 335.053864,244.031067 334.996826,249.474747 
	C334.954926,253.471466 332.427063,255.236343 328.936829,253.235992 
	C326.267456,251.706116 324.148804,249.215347 321.921631,247.271133 
	C320.968109,249.347458 320.497314,252.117111 318.866608,253.339783 
	C317.684387,254.226212 314.965393,253.062973 311.885345,252.685501 
	C311.876465,252.690948 310.805176,253.347107 309.383789,253.531982 
	C309.370270,251.001144 309.706879,248.941574 310.043488,246.882004 
z"/>
<path fill="#D8D8D8" opacity="1.000000" stroke="none" 
	d="
M129.759521,248.280792 
	C129.060699,247.310730 128.621811,246.611694 128.182922,245.912674 
	C127.784790,246.060394 127.386650,246.208130 126.988510,246.355865 
	C126.988510,247.551086 126.847099,248.766769 127.016426,249.937500 
	C127.435532,252.835266 125.448479,254.203659 123.410484,253.737061 
	C121.743958,253.355499 119.451546,251.277313 119.258369,249.724655 
	C118.687508,245.136200 119.088234,240.433716 118.976311,235.779037 
	C118.891502,232.251648 121.239922,231.199066 123.634254,232.369934 
	C126.927216,233.980301 129.707001,236.640091 132.564102,238.745224 
	C132.970154,237.487579 133.051971,234.408890 134.474197,233.550156 
	C136.219116,232.496582 139.084610,233.298904 140.993073,233.298904 
	C140.993073,238.627869 141.206161,243.335236 140.891327,248.007050 
	C140.759888,249.957703 139.548294,253.420471 138.754410,253.441635 
	C136.459091,253.502823 134.043472,252.338745 131.850281,251.289474 
	C130.998413,250.881912 130.615829,249.493439 129.759521,248.280792 
z"/>
<path fill="#D7D7D7" opacity="1.000000" stroke="none" 
	d="
M189.235336,253.019470 
	C186.499039,250.633682 184.139633,248.319077 181.267685,245.501663 
	C181.143417,247.545090 181.441757,249.129761 180.874847,250.292633 
	C180.190384,251.696686 178.919571,253.532944 177.639603,253.771500 
	C175.338181,254.200455 173.871582,252.839310 173.959351,250.034607 
	C174.130005,244.581039 174.009338,239.118378 174.009338,233.767532 
	C181.028275,230.209656 183.444580,236.396530 187.745697,240.138474 
	C187.887405,237.663208 188.001831,235.664505 188.135422,233.331146 
	C190.623398,233.331146 193.152313,233.331146 195.893646,233.331146 
	C195.893646,239.079727 196.283127,244.850647 195.744553,250.533615 
	C195.431839,253.833359 192.929977,255.266388 189.235336,253.019470 
z"/>
<path fill="#D7D7D7" opacity="1.000000" stroke="none" 
	d="
M352.136108,252.367432 
	C349.096527,253.094986 346.380005,253.665253 343.634094,253.927887 
	C340.110748,254.264908 337.674316,253.537033 337.915558,248.946762 
	C338.146393,244.554337 337.392487,240.117355 337.356842,235.697647 
	C337.349762,234.815918 338.592010,233.198578 339.327423,233.157394 
	C343.303436,232.934677 347.387878,232.594162 351.270111,233.258133 
	C356.440521,234.142410 358.030182,237.355499 357.995789,244.401184 
	C357.976654,248.321457 357.092316,251.537354 352.136108,252.367432 
M346.054474,246.981003 
	C347.370667,246.439285 349.823364,245.868744 349.810486,245.360733 
	C349.747650,242.883301 351.617340,238.900864 346.018311,239.087189 
	C346.018311,241.502945 346.018311,243.803146 346.054474,246.981003 
z"/>
<path fill="#D8D8D8" opacity="1.000000" stroke="none" 
	d="
M422.257202,241.583084 
	C422.029938,239.364899 421.393921,237.197128 422.162140,235.803345 
	C423.054596,234.184219 425.252899,232.169296 426.749573,232.272949 
	C428.750580,232.411530 431.888885,232.965744 430.578827,237.197174 
	C429.481384,240.741806 428.455841,245.026993 432.713226,248.094055 
	C437.760223,245.652481 436.277802,241.093414 435.568573,237.422012 
	C435.041656,234.694382 434.901184,233.095337 437.912323,233.086197 
	C440.383972,233.078690 444.063416,231.595123 444.009064,236.454086 
	C443.986786,238.446335 443.961823,240.440475 444.020142,242.431335 
	C444.134735,246.345413 443.852386,249.957626 439.726288,252.081406 
	C434.894684,254.568298 429.699310,255.370605 425.751801,251.631638 
	C423.568115,249.563309 423.494202,245.267456 422.257202,241.583084 
z"/>
<path fill="#D7D7D7" opacity="1.000000" stroke="none" 
	d="
M310.011536,246.655945 
	C309.706879,248.941574 309.370270,251.001144 309.016602,253.448914 
	C308.415710,253.881851 307.831879,253.926590 306.995819,253.475769 
	C305.792572,252.333786 304.841583,251.687347 303.890594,251.040924 
	C301.297516,251.681549 298.729187,252.466965 296.103271,252.915268 
	C294.134521,253.251389 292.091736,253.153809 289.547363,253.274734 
	C291.611786,246.666122 293.008270,241.086319 295.194092,235.835083 
	C295.903717,234.130234 298.576202,232.545624 300.540253,232.273666 
	C302.199829,232.043884 304.849365,233.326035 305.785706,234.767349 
	C307.385345,237.229645 307.986816,240.340363 308.844788,243.737030 
	C309.062286,244.863892 309.442566,245.432465 309.822845,246.001038 
	C309.822845,246.001038 309.979553,246.429901 310.011536,246.655945 
z"/>
<path fill="#D6D6D6" opacity="1.000000" stroke="none" 
	d="
M142.980896,236.193329 
	C142.994781,235.053391 142.743500,234.126343 143.085114,233.773758 
	C145.238785,231.551025 158.967880,231.360428 160.773270,233.589752 
	C161.303055,234.243927 161.478531,235.798508 161.059937,236.466248 
	C160.399872,237.519226 159.198227,238.649734 158.049088,238.885361 
	C156.128250,239.279205 154.067978,238.992920 152.066391,238.992920 
	C152.058792,239.674530 152.051193,240.356140 152.043594,241.037750 
	C153.848267,241.037750 155.719284,240.751678 157.431808,241.148941 
	C158.402649,241.374130 159.113602,242.719757 159.941620,243.560760 
	C159.084854,244.362518 158.192825,245.885086 157.377213,245.845184 
	C153.124756,245.637299 150.102066,246.221390 150.750809,251.687027 
	C150.822159,252.288284 147.723816,254.172424 146.831436,253.781555 
	C145.257706,253.092255 143.362686,251.212067 143.178345,249.645020 
	C142.675705,245.372360 142.995758,241.002914 142.980896,236.193329 
z"/>
<path fill="#093655" opacity="1.000000" stroke="none" 
	d="
M104.958954,178.892456 
	C104.638680,178.996033 104.581894,179.007446 104.555878,179.011017 
	C102.594246,178.640488 100.658623,178.266388 98.346252,177.934265 
	C97.969498,177.976227 98.004425,177.994461 98.013634,178.011871 
	C98.877052,176.929611 99.504662,175.352478 100.627800,174.819427 
	C104.052414,173.194077 104.695442,170.837265 103.175529,166.959839 
	C99.418831,167.232468 95.570145,167.511780 91.721451,167.791077 
	C91.492119,167.320343 91.262787,166.849609 91.033447,166.378860 
	C94.482323,164.366913 97.725975,161.472809 101.441803,160.608353 
	C104.704567,159.849289 104.820755,158.483582 105.087593,156.004608 
	C105.300224,154.029282 106.233673,152.131516 106.847137,150.199326 
	C107.490913,150.233353 108.134682,150.267395 108.778458,150.301422 
	C108.946198,151.973831 109.489960,153.714188 109.202698,155.304398 
	C108.621475,158.521805 109.387115,160.487961 112.443115,162.190994 
	C115.684937,163.997589 118.416145,166.720428 121.370346,169.043137 
	C121.085381,169.552704 120.800407,170.062256 120.515434,170.571823 
	C116.547104,169.548080 112.578773,168.524353 108.739746,167.533966 
	C105.751389,172.438980 109.557976,174.869995 112.319344,177.838882 
	C109.600960,178.205704 107.440102,178.497299 104.958954,178.892456 
z"/>
<path fill="#D6D6D6" opacity="1.000000" stroke="none" 
	d="
M407.049744,232.006775 
	C410.243805,232.360214 411.281830,233.821381 411.064575,236.656998 
	C410.814575,239.920258 411.006500,243.217392 411.006500,247.019592 
	C413.572083,247.019592 415.965210,246.559280 418.041870,247.171753 
	C419.578918,247.625092 420.704163,249.474442 422.012878,250.701874 
	C420.636322,251.463425 419.292145,252.802353 417.877319,252.881683 
	C413.013458,253.154465 408.124847,252.986526 403.007416,252.986526 
	C403.007416,247.562927 403.293304,242.584717 402.905396,237.659576 
	C402.653107,234.456894 403.827850,232.866043 407.049744,232.006775 
z"/>
<path fill="#D7D7D7" opacity="1.000000" stroke="none" 
	d="
M164.113342,233.064957 
	C166.231766,233.029221 168.006866,232.662872 169.497589,233.156097 
	C170.529831,233.497589 171.877945,235.033951 171.864731,236.020065 
	C171.801819,240.714752 171.544052,245.436966 170.855377,250.075104 
	C170.643677,251.500977 168.700607,253.852997 167.807693,253.740387 
	C166.114456,253.526855 163.295547,251.898773 163.243195,250.753296 
	C162.975220,244.887650 163.440018,238.988510 164.113342,233.064957 
z"/>
<path fill="#D1D2D1" opacity="1.000000" stroke="none" 
	d="
M109.089149,239.433441 
	C109.591408,237.277985 110.211922,235.544022 110.910225,233.483078 
	C112.453300,233.156113 113.918587,233.156113 116.398849,233.156113 
	C116.603615,238.719666 117.078911,244.194641 116.827423,249.636017 
	C116.758011,251.137939 114.786316,253.203415 113.217613,253.825485 
	C111.088203,254.669876 108.887138,253.848663 108.950630,250.764435 
	C109.025490,247.127701 109.120903,243.491394 109.089149,239.433441 
z"/>
<path fill="#C8C8C8" opacity="1.000000" stroke="none" 
	d="
M295.672058,270.288452 
	C297.011932,274.033173 300.206848,277.708923 295.428375,280.830414 
	C292.475983,282.759033 289.424072,282.477631 286.844513,280.206940 
	C283.761139,277.492767 285.582855,273.862335 286.671661,271.325104 
	C287.271973,269.926270 291.134644,269.867828 293.558838,269.358826 
	C294.080078,269.249420 294.740417,269.802246 295.672058,270.288452 
z"/>
<path fill="#C6C6C6" opacity="1.000000" stroke="none" 
	d="
M413.011780,278.952332 
	C410.134918,282.564331 406.517456,283.175232 403.473206,280.543243 
	C402.003723,279.272797 401.326691,275.808411 401.909210,273.808929 
	C402.467682,271.892181 405.252258,269.197327 406.820435,269.346558 
	C408.998016,269.553772 411.289032,271.822052 412.865143,273.752136 
	C413.677460,274.746948 413.048706,276.918549 413.011780,278.952332 
z"/>
<path fill="#C8C8C8" opacity="1.000000" stroke="none" 
	d="
M348.301819,269.327026 
	C350.879456,269.426453 353.481995,269.198486 355.232147,270.311218 
	C356.923492,271.386566 359.037018,274.211761 358.640961,275.609924 
	C357.991272,277.903595 355.780212,280.227020 353.613739,281.454498 
	C352.148529,282.284637 347.882538,281.400909 347.852356,281.036682 
	C347.538574,277.248627 347.830261,273.410400 348.301819,269.327026 
z"/>
<path fill="#CCCCCC" opacity="1.000000" stroke="none" 
	d="
M447.983643,275.845520 
	C447.901337,273.641724 447.508514,270.344727 447.789246,270.286377 
	C450.629303,269.695709 453.579498,269.634491 457.054626,269.384735 
	C457.054626,273.956207 457.054626,277.614044 457.054626,282.107208 
	C455.466675,281.002380 454.214996,280.131561 453.395111,279.561096 
	C451.810974,280.135895 450.314789,280.678741 448.818604,281.221619 
	C448.540985,279.566254 448.263336,277.910889 447.983643,275.845520 
z"/>
<path fill="#C9C9C9" opacity="1.000000" stroke="none" 
	d="
M304.390381,269.277069 
	C307.108643,269.418091 309.454132,269.783936 311.553955,270.111450 
	C311.997467,273.566010 312.492493,276.592987 312.698639,279.639526 
	C312.747101,280.355896 311.820343,281.138275 311.342224,281.890259 
	C310.293762,281.036224 309.245331,280.182190 308.116760,279.262878 
	C306.912567,280.029877 305.445557,281.070221 303.842010,281.817657 
	C303.685883,281.890442 302.087402,280.083527 302.184479,279.271851 
	C302.577148,275.989075 303.371521,272.754333 304.390381,269.277069 
z"/>
<path fill="#C6C6C6" opacity="1.000000" stroke="none" 
	d="
M139.085510,272.183960 
	C140.849075,268.075928 143.945572,268.566071 146.523987,270.173370 
	C147.867233,271.010712 148.247879,273.435150 148.981277,275.177246 
	C149.160690,275.603424 149.062988,276.169556 149.015121,276.663849 
	C148.848648,278.382324 148.648132,280.097504 148.460571,281.813934 
	C146.994507,280.744781 145.528442,279.675629 143.924469,278.505920 
	C143.458633,279.459839 142.846649,280.713043 142.234665,281.966248 
	C141.767120,282.113556 141.299591,282.260864 140.832047,282.408203 
	C140.355743,280.993347 139.687454,279.609619 139.451630,278.155762 
	C139.155365,276.329407 139.213257,274.445648 139.085510,272.183960 
z"/>
<path fill="#CCCCCC" opacity="1.000000" stroke="none" 
	d="
M441.979065,275.189240 
	C441.348694,276.632446 440.698334,277.684357 440.015198,278.789307 
	C440.615204,278.909210 441.764557,279.138947 442.913940,279.368683 
	C442.983978,279.916321 443.054016,280.463928 443.124054,281.011566 
	C440.294373,281.458923 437.464691,281.906250 434.541656,282.368347 
	C434.024292,278.538666 433.213470,275.332947 433.367981,272.174408 
	C433.422577,271.058350 435.817413,269.230255 437.173859,269.202637 
	C439.094757,269.163513 441.043488,270.491302 442.980316,271.234894 
	C441.941559,272.107605 440.902802,272.980286 440.005707,273.733978 
	C440.352264,273.922729 441.155670,274.360352 441.979065,275.189240 
z"/>
<path fill="#C8C8C8" opacity="1.000000" stroke="none" 
	d="
M193.148621,274.664490 
	C193.390686,277.033051 193.390686,279.132782 193.390686,282.364044 
	C190.885376,281.821564 186.052963,281.790619 185.688141,280.498352 
	C184.742661,277.149231 185.322327,273.111938 186.356049,269.668396 
	C186.575653,268.936890 191.313873,269.561859 193.970276,269.561859 
	C194.027893,270.170685 194.085510,270.779541 194.143127,271.388367 
	C192.949417,272.139130 191.755707,272.889893 190.501007,273.679016 
	C191.375549,273.939575 192.141037,274.167664 193.148621,274.664490 
z"/>
<path fill="#C6C6C6" opacity="1.000000" stroke="none" 
	d="
M325.099976,274.055267 
	C324.846466,275.661133 324.216705,277.224792 323.545990,278.889984 
	C323.992126,278.940399 325.440796,279.104065 327.374115,279.322510 
	C324.990387,283.301178 321.677734,282.316376 319.077179,281.219818 
	C318.008118,280.769012 317.890259,277.931824 317.461090,276.150909 
	C317.255127,275.296173 317.137329,274.330688 317.322296,273.490875 
	C317.649719,272.004578 318.076355,269.430542 318.748779,269.335083 
	C320.881195,269.032349 323.146271,269.663818 325.360046,269.934113 
	C324.850922,271.018280 324.349396,272.106232 323.822693,273.181793 
	C323.758698,273.312500 323.558929,273.376709 323.422089,273.471741 
	C323.855957,273.652191 324.289825,273.832642 325.099976,274.055267 
z"/>
<path fill="#C9C9C9" opacity="1.000000" stroke="none" 
	d="
M379.319580,281.240234 
	C373.127960,282.465149 372.839874,282.181885 372.865845,276.087189 
	C372.868988,275.344299 371.908264,274.465240 372.099915,273.880585 
	C372.624023,272.281586 373.205994,269.913635 374.355774,269.502563 
	C375.871063,268.960846 378.062836,269.748627 379.712738,270.509247 
	C380.172119,270.721008 379.623108,272.870880 379.769348,274.104065 
	C379.857880,274.850586 380.721588,275.572723 380.662048,276.255707 
	C380.521790,277.864655 380.036926,279.443573 379.319580,281.240234 
z"/>
<path fill="#C8C8C8" opacity="1.000000" stroke="none" 
	d="
M229.208832,270.556061 
	C232.434311,268.228912 235.279709,268.533661 239.408203,271.066193 
	C236.700424,272.253754 235.200058,272.911774 233.828918,273.513123 
	C234.743591,273.988770 235.852600,274.565491 236.961624,275.142212 
	C236.313492,276.315430 235.665359,277.488617 235.050659,278.601318 
	C235.868561,279.099365 237.108734,279.854553 238.348907,280.609741 
	C238.185608,280.982635 238.022293,281.355560 237.858994,281.728455 
	C236.734726,281.821533 235.600372,281.848755 234.487961,282.019226 
	C230.061707,282.697388 228.389069,280.793915 228.960953,276.443512 
	C229.197067,274.647369 229.026657,272.797852 229.208832,270.556061 
z"/>
<path fill="#C8C8C8" opacity="1.000000" stroke="none" 
	d="
M388.766602,281.279175 
	C385.170166,277.492859 384.969727,272.870544 387.968964,270.557281 
	C391.387665,267.920502 393.737122,268.635437 397.384338,274.029633 
	C394.716095,273.672302 392.645386,273.394989 389.991455,273.039581 
	C390.144196,274.996033 390.284363,276.791321 390.430084,278.657776 
	C392.851837,277.885040 394.673309,277.303833 397.577484,276.377167 
	C395.961182,282.038727 392.977509,282.587555 388.766602,281.279175 
z"/>
<path fill="#C5C5C5" opacity="1.000000" stroke="none" 
	d="
M246.140259,280.983215 
	C244.569794,281.132721 243.382996,281.226624 242.196213,281.320526 
	C244.683060,277.625641 245.902161,274.680878 242.840637,271.297455 
	C242.652344,271.089355 243.672546,269.180145 243.987228,269.219086 
	C246.939499,269.584686 249.860519,270.202667 252.988892,270.784607 
	C252.047684,272.386169 251.009430,274.152863 249.912399,276.019562 
	C251.009796,277.426910 252.068390,278.784515 253.739471,280.927582 
	C250.732925,280.927582 248.628433,280.927582 246.140259,280.983215 
z"/>
<path fill="#C8C8C8" opacity="1.000000" stroke="none" 
	d="
M164.425568,281.018127 
	C160.995117,280.787872 157.855133,280.324341 153.999268,279.755096 
	C154.892578,277.182098 155.872498,273.700836 157.415909,270.490509 
	C157.711517,269.875610 161.345932,269.881195 161.535812,270.358307 
	C162.874771,273.722870 163.715942,277.285492 164.425568,281.018127 
z"/>
<path fill="#C9C9C9" opacity="1.000000" stroke="none" 
	d="
M421.756500,281.242432 
	C420.200775,277.563629 418.933350,274.153778 417.665924,270.743927 
	C418.117767,270.313690 418.569580,269.883453 419.021393,269.453217 
	C420.802246,270.810059 422.583099,272.166901 424.534149,273.653412 
	C424.691040,272.884766 424.581299,271.429169 425.256287,270.703735 
	C425.871368,270.042694 427.337830,270.173798 428.429016,269.955750 
	C428.604919,270.842407 429.125854,271.835205 428.891907,272.595795 
	C428.196930,274.855072 427.517761,277.236389 426.213837,279.148163 
	C425.405945,280.332672 423.472870,280.749817 421.756500,281.242432 
z"/>
<path fill="#C5C5C5" opacity="1.000000" stroke="none" 
	d="
M178.968399,275.906250 
	C178.572388,277.363098 178.453003,278.639496 177.772675,279.437988 
	C176.878662,280.487244 175.585327,281.699493 174.381485,281.793976 
	C173.652298,281.851196 172.533463,280.032898 172.005859,278.868652 
	C171.146820,276.972992 170.453796,274.958954 170.034348,272.924042 
	C169.796951,271.772369 170.244797,270.479401 170.383987,269.250092 
	C171.358200,270.107635 172.476440,270.852875 173.260590,271.858612 
	C173.877136,272.649414 174.081299,273.761719 174.340042,274.409332 
	C176.011246,272.716431 177.674850,271.031219 179.338470,269.345978 
	C179.756592,269.670410 180.174713,269.994843 180.592834,270.319244 
	C180.060379,272.050568 179.527924,273.781891 178.968399,275.906250 
z"/>
<path fill="#C8C8C8" opacity="1.000000" stroke="none" 
	d="
M260.980164,279.924988 
	C260.071777,280.475159 259.224030,280.654572 258.376282,280.833984 
	C258.136230,277.514801 257.685974,274.186401 257.830475,270.884003 
	C257.859985,270.210022 260.425812,268.838013 261.297760,269.169189 
	C263.482147,269.998840 265.518524,271.457672 267.234680,273.068512 
	C267.558655,273.372589 266.404388,275.821686 265.438019,276.785400 
	C264.241638,277.978485 262.529846,278.654694 260.980164,279.924988 
z"/>
<path fill="#C9C9C9" opacity="1.000000" stroke="none" 
	d="
M131.991943,276.127838 
	C131.997482,277.381958 132.247849,278.324707 131.932083,279.004456 
	C131.452988,280.035828 130.580612,280.884491 129.875305,281.810791 
	C129.247101,280.816650 128.345337,279.897980 128.045868,278.813110 
	C127.356163,276.314514 126.959183,273.735168 125.696388,270.842133 
	C128.142654,267.588593 131.511856,269.031311 135.044556,270.374420 
	C133.885605,272.390137 132.934448,274.044434 131.991943,276.127838 
z"/>
<path fill="#C3C3C3" opacity="1.000000" stroke="none" 
	d="
M277.784546,278.982788 
	C279.403961,279.240845 280.593262,279.491058 282.999023,279.997192 
	C278.779297,282.676849 275.557983,282.873627 272.576385,280.909302 
	C270.936798,279.829132 272.163452,271.170227 274.766815,268.113129 
	C275.290375,270.563019 275.612976,272.234833 276.010620,273.888580 
	C276.420532,275.593170 276.903503,277.280182 277.784546,278.982788 
z"/>
<path fill="#C3C3C3" opacity="1.000000" stroke="none" 
	d="
M198.995789,272.453033 
	C199.674683,271.066467 200.350723,270.119385 201.026749,269.172272 
	C201.682312,270.145966 202.755661,271.059967 202.905197,272.105988 
	C203.203140,274.189941 202.993439,276.346405 202.993439,278.666809 
	C204.787918,278.919586 206.329163,279.136688 207.870407,279.353790 
	C207.961151,279.905304 208.051895,280.456818 208.142654,281.008331 
	C206.218887,281.314423 204.251373,282.003113 202.386978,281.789948 
	C201.175842,281.651489 199.419724,280.379395 199.137344,279.295013 
	C198.613831,277.284607 198.990891,275.039734 198.995789,272.453033 
z"/>
<path fill="#C9C9C9" opacity="1.000000" stroke="none" 
	d="
M366.799744,271.581390 
	C366.477356,275.333710 368.351562,279.149567 364.994476,282.553131 
	C361.446686,278.556396 363.673798,274.349304 362.824432,269.608948 
	C364.556396,270.318054 365.595642,270.743561 366.799744,271.581390 
z"/>
<path fill="#103953" opacity="1.000000" stroke="none" 
	d="
M19.546982,254.961060 
	C20.503172,255.463455 21.052641,255.963135 21.781136,256.675293 
	C18.738741,256.887756 15.517323,256.887756 12.295903,256.887756 
	C12.262698,256.640839 12.229492,256.393890 12.196286,256.146973 
	C14.510944,255.750778 16.825603,255.354568 19.546982,254.961060 
z"/>
<path fill="#D6D6D6" opacity="1.000000" stroke="none" 
	d="
M304.016846,251.350159 
	C304.841583,251.687347 305.792572,252.333786 306.717773,253.375793 
	C305.842316,253.067383 304.992706,252.363388 304.016846,251.350159 
z"/>
<path fill="#103953" opacity="1.000000" stroke="none" 
	d="
M30.414181,255.925461 
	C31.448965,255.599396 32.863560,255.303406 34.661278,255.014832 
	C33.627602,255.333359 32.210796,255.644440 30.414181,255.925461 
z"/>
<path fill="#D6D6D6" opacity="1.000000" stroke="none" 
	d="
M309.896942,245.695953 
	C309.442566,245.432465 309.062286,244.863892 308.887329,244.127991 
	C309.385468,244.437393 309.678253,244.914124 309.896942,245.695953 
z"/>
<path fill="#103953" opacity="1.000000" stroke="none" 
	d="
M23.589249,254.098114 
	C22.857798,254.423279 21.770014,254.708359 20.326508,254.982056 
	C21.058163,254.666458 22.145538,254.362259 23.589249,254.098114 
z"/>
<path fill="#103953" opacity="1.000000" stroke="none" 
	d="
M26.665100,253.117920 
	C26.475716,253.402313 25.995104,253.671463 25.229454,253.961685 
	C25.420902,253.689392 25.897385,253.396027 26.665100,253.117920 
z"/>
<path fill="#103953" opacity="1.000000" stroke="none" 
	d="
M29.735319,252.233063 
	C29.803232,252.428253 29.604084,252.637192 29.156254,252.893066 
	C29.074265,252.699921 29.261160,252.468872 29.735319,252.233063 
z"/>
<path fill="#000000" opacity="1.000000" stroke="none" 
	d="
M44.670090,197.106766 
	C44.708832,198.232971 44.620945,199.582703 44.108597,200.745377 
	C38.719662,212.974396 40.259239,224.068924 49.358742,233.999741 
	C49.673393,234.343140 49.778019,234.878983 49.987171,235.678284 
	C43.310429,233.066406 41.193951,226.832214 39.756393,220.595398 
	C37.844330,212.299911 38.215137,204.118057 44.670090,197.106766 
z"/>
<path fill="#000000" opacity="1.000000" stroke="none" 
	d="
M87.187309,191.737122 
	C86.468880,191.895813 85.266129,192.113693 84.565079,191.619659 
	C75.450035,185.196274 65.708946,186.126785 55.369541,188.983780 
	C58.991428,187.380310 62.988953,184.528748 67.047043,184.439774 
	C74.250397,184.281830 81.461838,185.877762 87.187309,191.737122 
z"/>
<path fill="#000000" opacity="1.000000" stroke="none" 
	d="
M50.693733,190.694550 
	C50.132648,191.369980 49.254086,192.217484 47.944496,193.035553 
	C48.467735,192.292938 49.421997,191.579788 50.693733,190.694550 
z"/>
<path fill="#000000" opacity="1.000000" stroke="none" 
	d="
M46.740837,193.726608 
	C46.578079,194.619400 46.156406,195.757660 45.351822,196.947296 
	C45.473248,195.989807 45.977585,194.980942 46.740837,193.726608 
z"/>
<path fill="#000000" opacity="1.000000" stroke="none" 
	d="
M54.633774,188.903839 
	C54.098904,189.339233 53.188282,189.709366 51.884399,190.041718 
	C52.413425,189.615509 53.335724,189.227051 54.633774,188.903839 
z"/>
<path fill="#000000" opacity="1.000000" stroke="none" 
	d="
M346.036377,246.542175 
	C346.018311,243.803146 346.018311,241.502945 346.018311,239.087189 
	C351.617340,238.900864 349.747650,242.883301 349.810486,245.360733 
	C349.823364,245.868744 347.370667,246.439285 346.036377,246.542175 
z"/>
</svg>